<svg id="erji35mkli2d1" xmlns="http://www.w3.org/2000/svg" xmlns:xlink="http://www.w3.org/1999/xlink" viewBox="0 0 5120 5120" shape-rendering="geometricPrecision" text-rendering="geometricPrecision">
    <style><![CDATA[#erji35mkli2d2_to {animation: erji35mkli2d2_to__to 2000ms linear infinite normal forwards}@keyframes erji35mkli2d2_to__to { 0% {transform: translate(3594px,3105px)} 8.666667% {transform: translate(3594px,1910px)} 20% {transform: translate(2560px,1363.485682px)} 33.333333% {transform: translate(1526.045895px,1910px)} 100% {transform: translate(1526.045895px,1910px)} }#erji35mkli2d3_to {animation: erji35mkli2d3_to__to 2000ms linear infinite normal forwards}@keyframes erji35mkli2d3_to__to { 0% {transform: translate(1528px,1910px)} 8.666667% {transform: translate(1528px,3105px)} 20% {transform: translate(2560px,3756.514318px)} 33.333333% {transform: translate(3594px,3105px)} 100% {transform: translate(3594px,3105px)} }]]></style>
    <g id="erji35mkli2d2_to" transform="translate(3594,3105)">
        <path id="erji35mkli2d2" d="M2701.400000,2265.140000C2701.400000,2265.140000,3295.480000,1923.700000,3592.480000,1753Q4178.680000,2090.845000,4765,2428.750000L4765,3783.290000Q4178.290000,4120.115000,3591.460000,4457Q3007.285000,4119.665000,2423,3782.270000C2423.340000,3438.840000,2424.020000,2751.880000,2424.020000,2751.880000L2423,2426.710000ZM3591.460000,2073.090000Q3217.585000,2288.490000,2843.650000,2503.940000L2843.650000,2516.140000Q3218.530000,2730.010000,3593.490000,2943.940000Q3968.880000,2730.055000,4344.350000,2516.140000L4344.350000,2504.960000Q3967.940000,2289.050000,3591.460000,2073.090000ZM2701.400000,2751.880000L2701.400000,3626.800000Q3078.320000,3840.175000,3455.310000,4053.580000L3455.310000,3183.750000Q3078.390000,2967.840000,2701.400000,2751.880000ZM4480.510000,2751.880000Q4106.635000,2967.805000,3732.690000,3183.750000L3732.690000,4053.580000Q4110.630000,3837.670000,4488.630000,3621.720000Q4490.160000,3225.960000,4491.680000,2830.130000C4491.680000,2804.920000,4500.380000,2754.090000,4480.510000,2751.880000Z" transform="translate(-3594,-3105)" fill="rgb(255,255,255)" fill-rule="evenodd" stroke="none" stroke-width="1"/>
    </g>
    <g id="erji35mkli2d3_to" transform="translate(1528,1910)">
        <path id="erji35mkli2d3" d="M635.400000,1070.140000L1526.480000,558Q2112.680000,895.839000,2699,1233.750000L2699,2588.290000Q2112.290000,2925.115000,1525.460000,3262Q941.285000,2924.665000,357,2587.270000C357.339000,2243.840000,358.016000,1556.880000,358.016000,1556.880000L357,1231.710000ZM1525.460000,878.090000Q1151.585000,1093.490000,777.646000,1308.940000L777.646000,1321.140000Q1152.532000,1535.010000,1527.490000,1748.940000Q1902.880000,1535.055000,2278.350000,1321.140000L2278.350000,1309.960000Q1901.940000,1094.050000,1525.460000,878.090000ZM635.400000,1556.880000L635.400000,2431.800000Q1012.319000,2645.175000,1389.312000,2858.580000L1389.312000,1988.750000Q1012.390000,1772.840000,635.400000,1556.880000ZM2414.512000,1556.880000Q2040.637000,1772.805000,1666.692000,1988.750000L1666.692000,2858.580000Q2044.632000,2642.670000,2422.632000,2426.720000Q2424.162000,2030.960000,2425.682000,1635.130000C2425.680000,1609.920000,2434.380000,1559.090000,2414.510000,1556.880000Z" transform="translate(-1528,-1910)" fill="rgb(255,255,255)" fill-rule="evenodd" stroke="none" stroke-width="1"/>
    </g>
</svg>